<?xml version="1.0" encoding="iso-8859-1"?>
<!-- Generator: Adobe Illustrator 19.0.0, SVG Export Plug-In . SVG Version: 6.00 Build 0)  -->
<svg version="1.1" id="Layer_1" xmlns="http://www.w3.org/2000/svg" xmlns:xlink="http://www.w3.org/1999/xlink" x="0px" y="0px"
	 viewBox="0 0 512 512" style="enable-background:new 0 0 512 512;" xml:space="preserve">
<circle style="fill:#88EB92;" cx="256" cy="256" r="256"/>
<path style="fill:#73D17C;" d="M509.2,293.7c-16.4,111.2-104.3,199.1-215.5,215.5L148.3,363.7l215.5-215.5L509.2,293.7z"/>
<path style="fill:#FF8C8A;" d="M103.6,256c0-84.2,68.2-152.4,152.4-152.4S408.4,171.8,408.4,256S340.1,408.4,256,408.4
	S103.6,340.1,103.6,256z"/>
<path style="fill:#F8F8F8;" d="M367.9,256.9c0,62.3-50.5,112.9-112.9,112.9c-62.3,0-112.9-50.5-112.9-112.9
	c0-50.5,33.2-93.2,78.9-107.7v0.3v38.8c-25.2,12.5-42.5,38.5-42.5,68.5c0,42.2,34.2,76.4,76.4,76.4s76.4-34.2,76.4-76.4
	c0-29.9-17.2-55.8-42.2-68.3v-39v-0.3C334.8,163.9,367.9,206.5,367.9,256.9z M233.7,149.6v100.3c0,11.8,9.6,21.4,21.4,21.4l0,0
	c11.8,0,21.4-9.6,21.4-21.4V149.6c0-11.8-9.6-21.4-21.4-21.4l0,0C243.3,128.2,233.7,137.8,233.7,149.6z"/>
<g>
</g>
<g>
</g>
<g>
</g>
<g>
</g>
<g>
</g>
<g>
</g>
<g>
</g>
<g>
</g>
<g>
</g>
<g>
</g>
<g>
</g>
<g>
</g>
<g>
</g>
<g>
</g>
<g>
</g>
</svg>
